# xmcd
#
# Track frame offsets:
#	150
#	18019
#	49071
#	62338
#	76790
#	88492
#	104260
#	124228
#	144394
#
# Disc length: 2137 seconds
#
# Revision: 1
# Processed by: cddbd v1.5.2PL0 Copyright (c) Steve Scherf et al.
# Submitted via: audiograbber 1.82.02
#
DISCID=6b085709
DTITLE=Billy Shears Band - "Dangling The Carrot"
DYEAR=1984
DGENRE=Other
TTITLE0=1 Horse Town - Billy Shears Band   80's   84   2
TTITLE1=Eleanor Rigby - Billy Shears Band   80's   84   2
TTITLE2=Howlin At The Moon - Billy Shears Band   80's   84   2
TTITLE3=Feel My Heart - Billy Shears Band   80's   84   2
TTITLE4=Dangling The Carror (Funk Jam) - Billy Shears Band   80's   84   2
TTITLE5=Heat Of The Daytime - Billy Shears Band   80's   84   2
TTITLE6=Shoot The Moon - Billy Shears Band   80's   84   2
TTITLE7=Wonder Why - Billy Shears Band   80's   84   2
TTITLE8=Town Of Eola - Billy Shears Band   80's   84   2
EXTD=
EXTT0=
EXTT1=
EXTT2=
EXTT3=
EXTT4=
EXTT5=
EXTT6=
EXTT7=
EXTT8=
PLAYORDER=
